# xmcd
#
# Track frame offsets: 
#        150
#        29584
#        70359
#        93562
#        121228
#        148936
#        181492
#        205818
#        239846
#        273691
#        308243
#        341372
#
# Disc length: 4680 seconds
#
# Revision: 0
# Processed by: cddbd v1.5.2PL0 Copyright (c) Steve Scherf et al.
# Submitted via: ExactAudioCopyFreeDBPlugin 1.0
#
DISCID=c112460c
DTITLE=Scraps Of History - Stack O' Blues
DYEAR=1900
DGENRE=Blues
TTITLE0=Scraps Of History
TTITLE1=Old Timers Blues
TTITLE2=Three Dimples
TTITLE3=Running Out Of Money
TTITLE4=Weep and Moan
TTITLE5=Check Book Blues
TTITLE6=Bad Side Of The Dollar
TTITLE7=Stack O' Blues
TTITLE8=Ghetto Job
TTITLE9=Hey Baby
TTITLE10=It Ain't Mine
TTITLE11=Walk A Little Slower
EXTD=
EXTT0=
EXTT1=
EXTT2=
EXTT3=
EXTT4=
EXTT5=
EXTT6=
EXTT7=
EXTT8=
EXTT9=
EXTT10=
EXTT11=
PLAYORDER=
